HIERARCHY
ROOT Hips
{
	OFFSET 0.00 0.00 0.00
	CHANNELS 6 Xposition Yposition Zposition Yrotation Xrotation Zrotation
	JOINT Spine
	{
		OFFSET	0.0000	9.2263	1.5771
		CHANNELS 3 Xrotation Yrotation Zrotation
		JOINT Spine1
		{
			OFFSET	0.0000	16.2540	-0.1656
			CHANNELS 3 Xrotation Yrotation Zrotation
			JOINT Spine2
			{
				OFFSET	0.0000	13.6396	-1.2923
				CHANNELS 3 Xrotation Yrotation Zrotation
				JOINT Neck
				{
					OFFSET	0.0000	13.8774	-4.3542
					CHANNELS 3 Xrotation Yrotation Zrotation
					JOINT Neck1
					{
						OFFSET	0.0000	4.3400	0.9269
						CHANNELS 3 Xrotation Yrotation Zrotation
						JOINT Head
						{
							OFFSET	0.0000	4.0266	0.8585
							CHANNELS 3 Xrotation Yrotation Zrotation
							End Site
							{
								OFFSET 0.0000 23.0297 0.1231
							}
						}
					}
				}
				JOINT LeftShoulder
				{
					OFFSET	6.1442	10.1870	-3.7932
					CHANNELS 3 Zrotation Xrotation Yrotation
					JOINT LeftArm
					{
						OFFSET	12.3191	-1.1130	-1.7935
						CHANNELS 3 Zrotation Xrotation Yrotation
						JOINT LeftForeArm
						{
							OFFSET	27.6870	0.0000	0.0000
							CHANNELS 3 Xrotation Zrotation Yrotation
							JOINT LeftHand
							{
								OFFSET	27.8738	0.0000	0.0000
								CHANNELS 3 Zrotation Yrotation Xrotation
								End Site
								{
									OFFSET	10.0000	0.0000	0.0000
								}
							}
						}
					}
				}
				JOINT RightShoulder
				{
					OFFSET	-6.1402	10.1870	-3.7932
					CHANNELS 3 Zrotation Xrotation Yrotation
					JOINT RightArm
					{
						OFFSET	-12.3231	-1.1130	-1.7935
						CHANNELS 3 Zrotation Xrotation Yrotation
						JOINT RightForeArm
						{
							OFFSET	-27.6870	0.0000	0.0000
							CHANNELS 3 Xrotation Zrotation Yrotation
							JOINT RightHand
							{
								OFFSET	-27.8738	0.0000	0.0000
								CHANNELS 3 Zrotation Yrotation Xrotation
								End Site
								{
									OFFSET	-10.0000	0.0000	0.0000
								}
							}
						}
					}
				}
			}
		}
	}
	JOINT LeftUpLeg
	{
		OFFSET	9.6338	-3.2733	0.0000
		CHANNELS 3 Xrotation Yrotation Zrotation
		JOINT LeftLeg
		{
			OFFSET	0.0000	-41.7300	-1.7300
			CHANNELS 3 Xrotation Yrotation Zrotation
			JOINT LeftFoot
			{
				OFFSET	0.0126	-39.1900	-0.8477
				CHANNELS 3 Xrotation Yrotation Zrotation
				JOINT LeftToeBase
				{
					OFFSET	-0.1833	-12.1931	8.2823
					CHANNELS 3 Xrotation Yrotation Zrotation
					End Site
					{
						OFFSET 0.0000 0.0000 10.1681
					}
				}
			}
		}
	}
	JOINT RightUpLeg
	{
		OFFSET	-9.6338	-3.2733	0.0000
		CHANNELS 3 Xrotation Yrotation Zrotation
		JOINT RightLeg
		{
			OFFSET	0.0000	-41.7300	-1.7300
			CHANNELS 3 Xrotation Yrotation Zrotation
			JOINT RightFoot
			{
				OFFSET	0.0126	-39.1900	-0.8477
				CHANNELS 3 Xrotation Yrotation Zrotation
				JOINT RightToeBase
				{
					OFFSET	-0.1833	-12.1931	8.2823
					CHANNELS 3 Xrotation Yrotation Zrotation
					End Site
					{
						OFFSET 0.0032 0.0000 10.1681
					}
				}
			}
		}
	}
}
MOTION
Frames: 19
Frame Time: 0.0333333
-1.4702	95.8617	3.5566	-6.0864	3.2867	-1.4006	-1.463	1.6152	0.4786	-2.9398	3.2186	0.9659	-2.9398	3.2186	0.9659	7.0933	-4.7877	-1.2474	0	0	0	17.4349	-28.8246	18.5854	-7.7466	-0.3105	-1.3026	-70.9711	33.1658	7.6103	0.0186	-0.003	-26.6981	0.9677	10.7187	-8.8434																																														-0.8968	1.5567	9.2179	38.6667	18.7574	13.9008	-0.028	0.0242	72.2855	-23.6132	17.985	72.7716																																														-11.4203	5.2714	3.8311	17.9556	-0.0728	-0.5395	-9.7307	12.9303	-1.1418	-0.6838	-0.0273	0.0642	-7.8885	-6.9228	1.7323	12.1387	-0.0172	0.3169	-7.1514	11.8614	-1.2304	-0.0122	-0.11	0.2627
-1.4055	95.8632	3.305	-6.2266	3.2563	-1.343	-1.4239	1.6182	0.4678	-2.8614	3.2252	0.9439	-2.8614	3.2252	0.9439	7.0818	-4.7647	-1.2276	0	0	0	17.453	-28.6811	18.6012	-7.7451	-0.3113	-1.3021	-70.9399	33.1729	7.8834	0.016	-0.0031	-26.7318	0.5767	10.9623	-8.9104																																														-0.8849	1.5582	9.1992	38.1677	18.7473	14.6849	-0.0284	0.0237	71.7184	-23.3447	17.7929	72.2195																																														-11.5479	5.3286	3.7465	17.9575	-0.0704	-0.5395	-9.5818	13.0208	-1.0909	-0.6447	-0.0272	0.0641	-8.2361	-6.8022	1.6278	12.4832	-0.013	0.3305	-7.1284	11.8772	-1.2313	-0.0122	-0.11	0.2627
-1.3505	95.8648	3.0772	-6.45	3.2577	-1.2934	-1.4119	1.6354	0.4572	-2.8372	3.2597	0.9236	-2.8372	3.2597	0.9236	7.144	-4.7524	-1.2	0	0	0	17.6964	-28.5655	18.5928	-7.705	-0.3073	-1.3006	-71.015	33.1999	8.2736	0.015	-0.0033	-26.7759	0.0576	11.2963	-9.0862																																														-0.8286	1.5732	9.2032	37.7176	18.7421	15.4034	-0.0282	0.0238	71.0516	-23.0994	17.8989	71.7196																																														-11.6741	5.3731	3.6693	17.948	-0.0681	-0.5389	-9.4518	13.2069	-1.0453	-0.6419	-0.0272	0.0641	-8.5792	-6.6803	1.5387	12.7732	-0.0093	0.3421	-7.0839	11.9747	-1.2321	-0.0122	-0.11	0.2627
-1.3128	95.8666	2.8758	-6.6461	3.2828	-1.2945	-1.4253	1.6497	0.4569	-2.864	3.2881	0.9226	-2.864	3.2881	0.9226	7.2536	-4.758	-1.1617	0	0	0	18.0858	-28.5228	18.6093	-7.654	-0.3034	-1.3002	-71.2036	33.2546	8.8105	0.0157	-0.0034	-26.9138	-0.267	11.6613	-9.3454																																														-0.7643	1.5898	9.203	37.3909	18.7493	16.0377	-0.0275	0.0244	70.2591	-23.0009	18.2472	71.4746																																														-11.8455	5.3797	3.6566	18.004	-0.0675	-0.5412	-9.3669	13.3904	-1.0134	-0.6592	-0.0272	0.0641	-8.8299	-6.6186	1.5209	12.8883	-0.0077	0.3465	-6.9717	12.1003	-1.2381	-0.0122	-0.11	0.2627
-1.2874	95.8681	2.6994	-6.7777	3.3099	-1.3313	-1.4432	1.6498	0.4617	-2.8999	3.288	0.9299	-2.8999	3.288	0.9299	7.3308	-4.7693	-1.1231	0	0	0	18.4537	-28.5124	18.7066	-7.6049	-0.2993	-1.2988	-71.4572	33.3158	9.4262	0.0167	-0.0034	-27.1591	-0.239	11.9189	-9.7273																																														-0.7337	1.5962	9.1869	37.1733	18.7742	16.5978	-0.0269	0.025	69.5893	-22.8288	18.274	71.4282																																														-12.0371	5.3642	3.6918	18.1102	-0.0686	-0.5457	-9.3151	13.5223	-0.9926	-0.6591	-0.0272	0.0641	-8.9918	-6.6007	1.554	12.8819	-0.0082	0.3458	-6.8232	12.2023	-1.248	-0.0122	-0.11	0.2627
-1.2643	95.8688	2.5423	-6.9043	3.3195	-1.3635	-1.4459	1.6424	0.4599	-2.905	3.2733	0.9238	-2.905	3.2733	0.9238	7.3268	-4.771	-1.0888	0	0	0	18.5736	-28.4803	18.8555	-7.5638	-0.2945	-1.2953	-71.7	33.3569	10.0079	0.0169	-0.0033	-27.4713	0.0414	12.0307	-10.2372																																														-0.7324	1.5946	9.1652	36.9554	18.7868	17.0504	-0.0269	0.0254	69.353	-22.1802	17.4125	71.2984																																														-12.1933	5.3547	3.7233	18.208	-0.0702	-0.5498	-9.2724	13.6457	-0.9739	-0.6286	-0.0272	0.064	-9.1256	-6.5746	1.5835	12.8827	-0.0092	0.3456	-6.6935	12.2932	-1.2569	-0.0122	-0.11	0.2627
-1.2418	95.8684	2.3992	-7.0799	3.3132	-1.3666	-1.4329	1.6345	0.446	-2.8786	3.2577	0.8944	-2.8786	3.2577	0.8944	7.2507	-4.7585	-1.0717	0	0	0	18.3936	-28.4236	18.9847	-7.5393	-0.2909	-1.2911	-71.877	33.3725	10.4992	0.016	-0.0032	-27.8096	0.2808	12.0919	-10.7384																																														-0.7072	1.6013	9.167	36.6392	18.7251	17.3454	-0.0275	0.0257	69.6049	-20.8824	15.6575	70.8321																																														-12.2898	5.3655	3.7218	18.2566	-0.0715	-0.5517	-9.2213	13.8072	-0.9552	-0.5973	-0.0271	0.064	-9.2823	-6.5133	1.5793	12.9657	-0.0097	0.3487	-6.6108	12.4021	-1.2651	-0.0122	-0.11	0.2627
-1.2247	95.8676	2.2709	-7.3115	3.3087	-1.3361	-1.4175	1.6258	0.4223	-2.847	3.241	0.847	-2.847	3.241	0.847	7.1249	-4.7336	-1.1022	0	0	0	18.0601	-28.359	19.0471	-7.5326	-0.2883	-1.2875	-71.9873	33.379	10.9062	0.0148	-0.0032	-28.137	0.2516	12.2063	-11.0982																																														-0.6355	1.6247	9.2175	36.2205	18.5351	17.4624	-0.0283	0.0263	70.2166	-18.9722	13.3303	69.8595																																														-12.337	5.398	3.6852	18.2433	-0.072	-0.551	-9.155	14.013	-0.94	-0.586	-0.0271	0.0639	-9.4808	-6.4183	1.5397	13.1317	-0.0094	0.3554	-6.5744	12.538	-1.2755	-0.0122	-0.11	0.2627
-1.2153	95.8668	2.1628	-7.5948	3.3217	-1.2958	-1.4107	1.6174	0.3968	-2.8327	3.2246	0.7969	-2.8327	3.2246	0.7969	6.9621	-4.6975	-1.183	0	0	0	17.6882	-28.2752	19.0261	-7.529	-0.2841	-1.2843	-72.0854	33.3962	11.2653	0.0142	-0.0032	-28.4302	-0.0097	12.4111	-11.355																																														-0.5335	1.6604	9.309	35.72	18.1997	17.4283	-0.0292	0.0273	71.0596	-16.4656	10.7471	68.213																																														-12.3667	5.4368	3.6396	18.2028	-0.0723	-0.549	-9.0939	14.2673	-0.9299	-0.593	-0.0271	0.064	-9.6925	-6.3177	1.493	13.3062	-0.0091	0.3625	-6.5501	12.7211	-1.2876	-0.0122	-0.11	0.2627
-1.2122	95.8666	2.0791	-7.9252	3.3502	-1.2818	-1.4124	1.6115	0.3764	-2.8355	3.2133	0.7566	-2.8355	3.2133	0.7566	6.772	-4.6504	-1.2689	0	0	0	17.2464	-28.1312	18.9312	-7.5184	-0.2803	-1.2812	-72.2082	33.4248	11.6062	0.014	-0.0034	-28.715	-0.2889	12.6789	-11.6515																																														-0.404	1.7045	9.4073	35.1415	17.7286	17.2715	-0.03	0.0289	72.0826	-13.368	8.2185	65.695																																														-12.4021	5.4567	3.6215	18.1868	-0.0732	-0.5482	-9.067	14.582	-0.9239	-0.6037	-0.0272	0.064	-9.8616	-6.2423	1.4784	13.3951	-0.0096	0.366	-6.4936	12.9737	-1.2984	-0.0122	-0.11	0.2627
-1.2152	95.867	2.0195	-8.283	3.3837	-1.3042	-1.4132	1.6079	0.3637	-2.8367	3.2063	0.7304	-2.8367	3.2063	0.7304	6.5558	-4.5916	-1.3277	0	0	0	16.6408	-27.9135	18.7998	-7.5231	-0.2823	-1.28	-72.2948	33.4409	11.88	0.0138	-0.0034	-29.0228	-0.4201	12.9328	-12.0631																																														-0.2612	1.7502	9.4829	34.5801	17.1233	16.9017	-0.0311	0.0305	73.4583	-9.7919	5.7715	62.1778																																														-12.4462	5.4484	3.6414	18.2165	-0.075	-0.5493	-9.0832	14.9438	-0.9216	-0.608	-0.0272	0.064	-9.9639	-6.19	1.5084	13.377	-0.0114	0.3652	-6.3965	13.2723	-1.3079	-0.0122	-0.11	0.2627
-1.2256	95.8676	1.9814	-8.6286	3.4247	-1.347	-1.4007	1.6067	0.3615	-2.8115	3.2039	0.724	-2.8115	3.2039	0.724	6.2837	-4.5247	-1.3903	0	0	0	15.821	-27.6791	18.6796	-7.5794	-0.2893	-1.2829	-72.2281	33.4265	11.9378	0.0128	-0.0034	-29.3071	-0.4377	13.0716	-12.533																																														-0.1895	1.7723	9.5105	34.2979	16.3968	16.0956	-0.0325	0.0316	75.5569	-6.3668	3.3246	57.9849																																														-12.4968	5.422	3.6851	18.2699	-0.0769	-0.5515	-9.1239	15.3058	-0.9245	-0.6217	-0.0272	0.064	-10.0215	-6.1487	1.567	13.2923	-0.0135	0.3617	-6.2822	13.5668	-1.3187	-0.0122	-0.11	0.2627
-1.2451	95.8684	1.9625	-8.9185	3.4887	-1.3959	-1.366	1.6076	0.3692	-2.7422	3.2056	0.7369	-2.7422	3.2056	0.7369	5.9206	-4.4562	-1.4956	0	0	0	14.7761	-27.5006	18.5946	-7.6852	-0.2962	-1.2883	-71.9753	33.4067	11.6906	0.0104	-0.0034	-29.4643	-0.5285	13.0261	-12.9557																																														-0.2594	1.7475	9.4537	34.5952	15.6755	14.6725	-0.0342	0.0311	78.5494	-4.7858	1.6907	54.6326																																														-12.5664	5.386	3.7401	18.3259	-0.0782	-0.5538	-9.1702	15.6183	-0.9345	-0.6655	-0.0273	0.0641	-10.065	-6.1204	1.6386	13.1741	-0.0152	0.3568	-6.1707	13.8168	-1.3328	-0.0122	-0.11	0.2627
-1.275	95.8706	1.9593	-8.9936	3.593	-1.4464	-1.3138	1.6007	0.3747	-2.6379	3.1919	0.7442	-2.6379	3.1919	0.7442	5.5093	-4.3909	-1.6045	0	0	0	13.4875	-27.3682	18.5104	-7.7958	-0.3048	-1.2938	-71.5864	33.3732	11.1878	0.0072	-0.0034	-29.4957	-0.833	12.888	-13.0862																																														-0.3679	1.7034	9.3061	35.5385	15.1573	12.7974	-0.0366	0.0287	83.5044	-6.8059	2.4583	54.1509																																														-12.6936	5.3401	3.8079	18.3765	-0.0802	-0.556	-9.194	15.7226	-0.9551	-0.7113	-0.0273	0.0642	-10.0924	-6.1164	1.7232	13.0098	-0.0178	0.35	-6.0717	13.8767	-1.3526	-0.0122	-0.11	0.2627
-1.314	95.8748	1.9683	-8.9878	3.7489	-1.4971	-1.2634	1.5683	0.3673	-2.5365	3.1275	0.7252	-2.5365	3.1275	0.7252	5.1544	-4.3219	-1.6542	0	0	0	11.9687	-27.1923	18.3301	-7.8786	-0.3173	-1.2997	-71.2271	33.3009	10.7947	0.0041	-0.0034	-29.6273	-1.1687	12.8161	-12.957																																														-0.3545	1.6882	9.1242	36.985	14.9537	10.8063	-0.0384	0.025	87.6555	-12.0023	6.4743	56.1191																																														-12.8653	5.2951	3.8826	18.4032	-0.0836	-0.5573	-9.2001	15.7446	-0.9835	-0.704	-0.0273	0.0642	-10.1322	-6.1341	1.8154	12.7998	-0.0222	0.3416	-5.9662	13.8783	-1.376	-0.0122	-0.1099	0.2626
-1.359	95.8808	1.9519	-8.9103	3.9583	-1.5485	-1.2291	1.5029	0.3545	-2.467	2.997	0.6949	-2.467	2.997	0.6949	4.9003	-4.2396	-1.6614	0	0	0	10.3588	-26.9195	17.9824	-7.9498	-0.3289	-1.3088	-70.9286	33.1713	10.547	0.0022	-0.0035	-29.8622	-1.3465	12.855	-12.6638																																														-0.2416	1.6969	8.9291	38.8812	15.0843	8.8708	-0.0394	0.0209	90.2711	-17.8294	12.2639	57.1467																																														-13.1176	5.2506	3.9673	18.4223	-0.0881	-0.5582	-9.1712	15.6909	-1.0185	-0.6563	-0.0272	0.0641	-10.2196	-6.1773	1.916	12.5567	-0.0278	0.3319	-5.8319	13.8323	-1.4082	-0.0122	-0.1099	0.2626
-1.3992	95.8881	1.9608	-8.7673	4.1946	-1.5946	-1.2071	1.4108	0.3463	-2.422	2.8129	0.6739	-2.422	2.8129	0.6739	4.7166	-4.1468	-1.6875	0	0	0	8.8886	-26.5934	17.5384	-8.0475	-0.3419	-1.3221	-70.6787	33.0217	10.4564	0.0011	-0.0035	-30.1586	-1.3982	12.9548	-12.5179																																														-0.1269	1.7002	8.6894	41.2596	15.5796	7.0027	-0.0403	0.0185	92.2698	-21.9419	16.8508	55.0442																																														-13.3775	5.2135	4.0419	18.4172	-0.092	-0.5582	-9.1392	15.566	-1.0503	-0.6279	-0.0272	0.064	-10.3011	-6.2351	2.0062	12.2915	-0.033	0.3215	-5.7117	13.7374	-1.4322	-0.0122	-0.1099	0.2625
-1.4329	95.8963	1.9925	-8.5802	4.4147	-1.6285	-1.1824	1.3024	0.344	-2.3718	2.5962	0.6649	-2.3718	2.5962	0.6649	4.5685	-4.0554	-1.7701	0	0	0	7.7215	-26.3031	17.1557	-8.1864	-0.3617	-1.3385	-70.4082	32.8957	10.4045	0	-0.0036	-30.4246	-1.532	13.1084	-12.6841																																														-0.0151	1.698	8.4136	43.8695	16.5233	5.311	-0.0408	0.0162	93.6029	-22.7899	19.2178	52.1259																																														-13.5944	5.1855	4.0975	18.3801	-0.0947	-0.5569	-9.1032	15.3925	-1.0777	-0.6439	-0.0272	0.0641	-10.3492	-6.3076	2.0759	12.0297	-0.0371	0.3112	-5.6157	13.6167	-1.4473	-0.0122	-0.1099	0.2625
-1.4635	95.9056	2.0348	-8.3815	4.5847	-1.6496	-1.1429	1.1861	0.3472	-2.2921	2.3638	0.6676	-2.2921	2.3638	0.6676	4.4538	-3.9643	-1.8987	0	0	0	6.8539	-26.0418	16.8551	-8.3457	-0.386	-1.3551	-70.1133	32.8212	10.2708	-0.0018	-0.0035	-30.5711	-1.776	13.2706	-13.0283																																														0.12	1.7048	8.1815	46.6999	17.7168	3.7745	-0.0411	0.014	94.4928	-20.554	19.2028	49.4661																																														-13.7372	5.1659	4.136	18.3117	-0.0963	-0.5545	-9.0599	15.2043	-1.1031	-0.6844	-0.0273	0.0642	-10.3437	-6.3762	2.1296	11.7781	-0.0402	0.3014	-5.5358	13.484	-1.4583	-0.0122	-0.1099	0.2624
